# xmcd CD database file
#
# Track frame offsets:
#	150
#	21607
#	37705
#
# Disc length: 821 seconds
#
# Revision: 1
# Processed by: cddbd v1.5.1PL0 Copyright (c) Steve Scherf et al.
# Submitted via: CDex 1.51
#
DISCID=1b033303
DTITLE=スチャダラパー - N.I.C.E GUY
DYEAR=1900
DGENRE=Hip-Hop
TTITLE0=N.I.C.E GUY(1991 NICE GUY'S REMIX)
TTITLE1=スチャダラパーのテーマ pt.2
TTITLE2=N.I.C.E GUY(nice guitar dub)
EXTD=
EXTT0=
EXTT1=
EXTT2=
PLAYORDER=
